Coordinates
version=1
nRows=6
nColumns=36
inDegrees=yes

Units are S.I. units (second, meters, Newtons, ...)
If the header above contains a line with 'inDegrees', this indicates whether rotational values are in degrees (yes) or radians (no).

endheader
time	pelvis_tilt	pelvis_list	pelvis_rotation	pelvis_tx	pelvis_ty	pelvis_tz	hip_flexion_r	hip_adduction_r	hip_rotation_r	knee_angle_r	knee_angle_r_beta	ankle_angle_r	subtalar_angle_r	mtp_angle_r	hip_flexion_l	hip_adduction_l	hip_rotation_l	knee_angle_l	knee_angle_l_beta	ankle_angle_l	subtalar_angle_l	mtp_angle_l	lumbar_extension	lumbar_bending	lumbar_rotation	arm_flex_r	arm_add_r	arm_rot_r	elbow_flex_r	pro_sup_r	arm_flex_l	arm_add_l	arm_rot_l	elbow_flex_l	pro_sup_l
      0.00000000	      6.37714419	     -2.39188763	     -0.48353833	     -0.10360207	      1.00478778	      0.11493111	     -4.49748598	      0.55634933	     -8.45068210	      5.73478387	      0.10009086	      7.55785287	      1.50210084	     -7.18769770	     -4.95246287	     -6.79626645	     -9.32102824	      5.65013279	      0.09861342	     10.93865543	     -1.51553305	     -7.18769770	     -6.60693153	      3.33485348	      4.05501998	     43.89087121	      8.00848484	     49.53422221	    116.82894129	    100.82742908	     57.98370868	     15.77030684	     70.72862536	    118.72499047	     95.09525534
      0.01666670	      5.04851924	     -1.07696349	     -1.43882717	     -0.10238352	      1.00140430	      0.11430060	     -3.07733467	     -0.74250077	     -9.86027461	      4.86752056	      0.08495426	      8.49471808	      4.39034442	     -7.20118902	     -4.37863193	     -5.37052589	    -12.75884907	      4.12340016	      0.07196691	      9.30972710	      0.49221386	     -7.20118902	     -4.97424115	      2.13747488	      3.55789527	     45.75967979	      9.47261174	     53.58049349	    120.28193358	    101.14675109	     59.50680506	     14.35780264	     69.68202029	    122.16146792	     94.70191448
      0.03333330	      2.96103974	     -0.59916346	     -2.44843304	     -0.10429642	      1.00190601	      0.11358777	     -0.64784896	     -1.11977602	    -11.32075802	      4.50765479	      0.07867342	      7.29386199	      4.94186947	     -7.25511974	     -2.04227186	     -4.76119915	    -15.01491076	      4.22027360	      0.07365767	      8.72423812	      2.00585716	     -7.25511974	     -2.64539618	      1.62169259	      4.57384171	     44.77623270	      9.16900016	     54.12955716	    121.02527993	     99.99025695	     59.22752299	     13.53614355	     69.72155700	    123.49892655	     92.40597275
      0.05000000	      2.42841473	     -0.30199309	     -2.64513441	     -0.10149628	      1.00155857	      0.11344455	     -0.10221742	     -1.46489348	    -12.26684752	      4.10485451	      0.07164323	      7.54412648	      6.44346203	     -7.26597996	     -1.44319354	     -4.25163154	    -17.07672600	      3.76722925	      0.06575055	      7.85531144	      2.40665953	     -7.26597996	     -1.48829508	      1.40918645	      4.69499100	     43.43115714	      8.94784307	     54.19223249	    120.59616894	    100.19346474	     58.86138824	     13.15901672	     69.53877042	    122.74716278	     91.86444833
      0.06666670	      1.54439537	     -0.23701857	     -2.67956616	     -0.09961301	      0.99992031	      0.11308640	      0.82392733	     -1.47592843	    -12.68588901	      3.96538492	      0.06920902	      7.33664714	      6.42399045	     -7.29787507	     -0.37609864	     -4.15752628	    -18.09786952	      3.78987011	      0.06614571	      7.22299115	      2.34348180	     -7.29787507	     -0.15346062	      1.58775412	      5.26100644	     42.06448939	      8.34907416	     53.89280782	    119.83275784	     98.04595400	     58.60820746	     13.28910997	     69.76020756	    121.99125589	     89.46829812
      0.08333330	      1.39433959	     -0.12940712	     -2.78675148	     -0.09944914	      1.00088152	      0.11181927	      0.88712618	     -1.64002323	    -13.10433354	      3.77840928	      0.06594568	      8.11647686	      7.60305765	     -7.34088668	      0.06545726	     -3.98697092	    -19.33625828	      3.92916480	      0.06857686	      7.04484810	      2.82484884	     -7.34088668	      0.25497041	      1.41261203	      5.46849312	     41.72623187	      8.28012985	     53.73771356	    119.68754464	     96.47006942	     58.73006169	     13.32434348	     70.28940062	    120.73804159	     86.56325000
